<svg width="220" height="220" viewBox="0 0 200 200" xmlns="http://www.w3.org/2000/svg">
  <defs>
    <linearGradient id="grad1" x1="0%" y1="0%" x2="100%" y2="100%">
      <stop offset="0%" stop-color="#ff00cc"></stop>
      <stop offset="50%" stop-color="#7b2ff7"></stop>
      <stop offset="100%" stop-color="#00c6ff"></stop>
    </linearGradient>
    <linearGradient id="grad2" x1="0%" y1="0%" x2="100%" y2="0%">
      <stop offset="0%" stop-color="#ff7a18"></stop>
      <stop offset="100%" stop-color="#ff3d00"></stop>
    </linearGradient>
  </defs>

  <!-- Stylized E -->
  <path d="M40 50 Q60 20 110 40 L90 60 Q60 50 50 80 Q70 70 110 80 L90 100 Q60 90 50 120 Q70 110 110 120 L90 140 Q60 130 40 150 Z" fill="url(#grad1)"></path>

  <!-- Location Pin -->
  <circle cx="130" cy="120" r="14" fill="url(#grad2)"></circle>
  <circle cx="130" cy="120" r="6" fill="white"></circle>

  <!-- Curve line -->
  <path d="M30 150 Q100 180 170 150" stroke="url(#grad1)" stroke-width="5" fill="none"></path>

  <!-- Sparkles -->
  <circle cx="150" cy="40" r="3" fill="#7b2ff7"></circle>
  <circle cx="165" cy="55" r="2" fill="#ff00cc"></circle>
  <circle cx="140" cy="60" r="2" fill="#00c6ff"></circle>
</svg>